<svg width="734" height="640" viewBox="0 0 734 640" fill="none" xmlns="http://www.w3.org/2000/svg" xmlns:xlink="http://www.w3.org/1999/xlink">
<rect width="734" height="640" fill="url(#pattern0)"/>
<defs>
<pattern id="pattern0" patternContentUnits="objectBoundingBox" width="1" height="1">
<use xlink:href="#image0_1_86" transform="translate(-0.00408719) scale(0.0013624 0.0015625)"/>
</pattern>
<image id="image0_1_86" width="740" height="640" xlink:href="/img/home.png"/>
</defs>
<path d="M225 532L445.8 540L515 526.3V548L446.5 567.7L225 556.7V532Z" fill="#3595F6" fill-opacity="0.75"/>
<path d="M226 531V506L446.3 509.3L516 506V526L446.7 539L226 531Z" fill="#3595F6" fill-opacity="0.75"/>
<path d="M226 505V480H447H516V503L448 510L226 505Z" fill="#3595F6" fill-opacity="0.75"/>
<path d="M226 481V456L447.3 452.3L515 459V481H447" fill="#3595F6" fill-opacity="0.75"/>
<path d="M226 455V429L447.5 425.7L516 436.7V458L447 451.3L226 455Z" fill="#3595F6" fill-opacity="0.75"/>
<path d="M225 428V404.3L446 392L517 415V436.3L446 424L225 428Z" fill="#3595F6" fill-opacity="0.75"/>
<path d="M225 406V381L447.2 364.7L517 393.3V414L446.7 392.3L225 406Z" fill="#3595F6" fill-opacity="0.75"/>
<path d="M225 381V356L447.5 335.7L517 372.3V393L445 364.3L225 381Z" fill="#3595F6" fill-opacity="0.75"/>
<path d="M225 355V331L448 306.3L517 350.3V372L447.7 334L225 355Z" fill="#3595F6" fill-opacity="0.75"/>
<path d="M225 330V306L447.5 277.3L517 328.3V349L446.7 306.7L225 330Z" fill="#3595F6" fill-opacity="0.75"/>
<path d="M224 306V282L446.3 249L517 308.3V328L447 277.3L224 306Z" fill="#3595F6" fill-opacity="0.75"/>
<path d="M225 281V257L446.2 222L516 286V307L447.3 248.7L225 281Z" fill="#3595F6" fill-opacity="0.75"/>
<path d="M225 257V232L447.3 194L516 264.3V285L447 221L225 257Z" fill="#3595F6" fill-opacity="0.75"/>
<path d="M225 231V206L445.8 162.3L516 241.3V264L447 190.7L225 231Z" fill="#3595F6" fill-opacity="0.75"/>
<path d="M226 207V182L446 134L516 219V242L445.3 162.7L226 207Z" fill="#3595F6" fill-opacity="0.75"/>
<path d="M225 182V157L444.8 105L516 197.3V220L446.3 133.7L225 182Z" fill="#3595F6" fill-opacity="0.75"/>
<path d="M225 157V131L447 74.3L516 176V197L446.7 105.3L225 157Z" fill="#3595F6" fill-opacity="0.75"/>
</svg>
